<svg width="22" height="16" viewBox="0 0 22 16" fill="none" xmlns="http://www.w3.org/2000/svg">
<path d="M13.2174 3.98797C13.2169 4.07522 13.2145 4.16242 13.2099 4.24946C13.2076 4.29249 13.2042 4.33539 13.2007 4.37828C13.1889 4.52375 13.215 4.25838 13.1978 4.40225C13.1762 4.58264 13.1411 4.7599 13.0979 4.93334C13.0881 4.97292 13.0771 5.012 13.0662 5.05105C13.0597 5.07423 13.0188 5.20521 13.0612 5.07408C13.0366 5.15008 13.0089 5.22427 12.9803 5.29771C12.9186 5.45591 12.8455 5.60613 12.766 5.74994C12.7036 5.8628 12.8217 5.65973 12.7553 5.76853C12.7359 5.80041 12.7156 5.83139 12.6953 5.86237C12.6548 5.92426 12.6118 5.9833 12.568 6.04128C12.5243 6.09929 12.4782 6.15424 12.4314 6.20806C12.408 6.23497 12.3839 6.26081 12.3598 6.28666C12.3237 6.32411 12.3274 6.32067 12.3707 6.2763C12.354 6.29267 12.3373 6.30878 12.3203 6.32461C12.2189 6.4208 12.1111 6.50503 12.0003 6.58131C11.9446 6.61974 11.8873 6.65416 11.8296 6.6872C11.929 6.63025 11.8298 6.68492 11.812 6.6938C11.7724 6.71358 11.7322 6.7311 11.6919 6.74834C11.5695 6.80063 11.4436 6.83802 11.3167 6.86618C11.2071 6.89049 11.4093 6.85269 11.2984 6.86996C11.2657 6.87506 11.2329 6.87854 11.2001 6.88201C11.1225 6.89027 11.0447 6.89215 10.9669 6.89149C10.9005 6.89096 10.8341 6.88555 10.7679 6.87851C10.7352 6.87477 10.7025 6.87022 10.6699 6.86486C10.7812 6.8822 10.6717 6.86339 10.6521 6.85901C10.5149 6.82857 10.3802 6.78054 10.2486 6.72196C10.2185 6.7086 10.1889 6.6938 10.1592 6.679C10.0583 6.62869 10.241 6.72713 10.1423 6.67062C10.0847 6.63757 10.0284 6.60049 9.97272 6.56213C9.85273 6.47947 9.73897 6.382 9.6302 6.27627C9.71599 6.35969 9.63161 6.27646 9.61695 6.26078C9.59296 6.23477 9.56932 6.20821 9.54604 6.18112C9.49927 6.1273 9.45469 6.07029 9.41095 6.01228C9.36717 5.95426 9.32577 5.89325 9.28523 5.83139C9.26495 5.80041 9.2455 5.76853 9.22606 5.73664C9.29557 5.85066 9.21067 5.70601 9.19851 5.68345C9.12625 5.54937 9.06318 5.4071 9.00623 5.26103C8.99192 5.22433 8.97862 5.18694 8.96531 5.14958C8.95724 5.1269 8.91653 4.99701 8.95755 5.1284C8.9295 5.03847 8.90561 4.94645 8.88349 4.85377C8.84501 4.69253 8.81797 4.52691 8.798 4.3601C8.81539 4.50532 8.79878 4.36142 8.79668 4.33551C8.79339 4.29249 8.79073 4.2494 8.78868 4.20625C8.78335 4.10443 8.78287 4.00227 8.78433 3.90027C8.78557 3.81347 8.7905 3.72686 8.79668 3.64047C8.79852 3.61475 8.81405 3.47006 8.798 3.61587C8.80263 3.57373 8.80846 3.53186 8.81429 3.48999C8.8392 3.31095 8.87747 3.13545 8.92372 2.96398C8.93428 2.92484 8.94594 2.88619 8.95757 2.84758C8.91787 2.97934 8.9574 2.84943 8.96534 2.8264C8.99121 2.75133 9.02018 2.67815 9.05012 2.60574C9.07993 2.53359 9.11268 2.46359 9.14632 2.39444C9.16311 2.35993 9.18084 2.32623 9.19854 2.29256C9.21041 2.27 9.29466 2.12409 9.22608 2.23937C9.30267 2.11064 9.38781 1.99099 9.47736 1.87775C9.52216 1.82108 9.56922 1.76758 9.61695 1.71523C9.63133 1.69946 9.71541 1.61485 9.6302 1.69971C9.66331 1.66673 9.69745 1.63553 9.73173 1.60462C9.835 1.51147 9.94443 1.43055 10.0567 1.35765C10.085 1.33955 10.1136 1.32212 10.1424 1.30536C10.2405 1.24729 10.0588 1.34889 10.1592 1.29698C10.2283 1.26124 10.299 1.23108 10.3701 1.2032C10.4316 1.17908 10.4941 1.15943 10.5568 1.14128C10.5884 1.13214 10.6203 1.12454 10.6521 1.11693C10.6715 1.1123 10.7813 1.09193 10.6699 1.11108C10.8127 1.08652 10.957 1.08076 11.1007 1.08665C11.1668 1.08934 11.2327 1.09688 11.2984 1.10601C11.4095 1.12147 11.2069 1.08724 11.3167 1.1098C11.3488 1.11637 11.3806 1.12451 11.4124 1.13264C11.5486 1.16744 11.6819 1.21963 11.8121 1.28218C11.8298 1.29069 11.9298 1.34426 11.8296 1.28878C11.8587 1.30486 11.8873 1.32232 11.9158 1.33978C11.9728 1.37454 12.0283 1.41334 12.0832 1.45336C12.1378 1.49326 12.1909 1.53694 12.2432 1.58181C12.2693 1.60421 12.2949 1.6278 12.3203 1.6514C12.3356 1.66554 12.42 1.75018 12.3354 1.66391C12.4337 1.76423 12.5251 1.87575 12.6115 1.99305C12.6548 2.05172 12.6956 2.11336 12.7356 2.17588C12.7477 2.19472 12.8122 2.30486 12.7475 2.19325C12.7663 2.22579 12.7843 2.25917 12.8023 2.29256C12.8746 2.42664 12.9377 2.56888 12.9946 2.71494C13.0089 2.75168 13.0222 2.78904 13.0355 2.82643C13.0436 2.84911 13.0843 2.979 13.0433 2.84761C13.0673 2.92462 13.0881 3.00331 13.1078 3.08238C13.1478 3.24274 13.1763 3.40761 13.1978 3.57379C13.2164 3.71735 13.1875 3.45248 13.2007 3.59776C13.2046 3.64059 13.2072 3.68358 13.2099 3.72655C13.2153 3.81347 13.2169 3.90077 13.2174 3.98797C13.2188 4.28645 13.4064 4.53555 13.6354 4.53555C13.8622 4.53555 14.0549 4.28648 14.0535 3.98797C14.0462 2.45211 13.3563 0.996155 12.2805 0.359687C11.1559 -0.305694 9.8479 -0.0317818 8.9317 1.04772C8.05045 2.08608 7.72743 3.80061 8.1069 5.26388C8.29079 5.97294 8.62674 6.61849 9.07422 7.08646C9.55911 7.59354 10.1191 7.88388 10.7351 7.96962C11.5848 8.08789 12.4407 7.6688 13.0692 6.92823C13.6981 6.18722 14.0482 5.08878 14.0534 3.98797C14.0549 3.68947 13.8622 3.4404 13.6354 3.4404C13.4064 3.4404 13.2188 3.68953 13.2174 3.98797Z" fill="#D9D9D9"/>
<path d="M14.0189 7.84939C14.0774 7.89827 14.1349 7.94919 14.1913 8.00212C14.2025 8.01254 14.2942 8.10488 14.2172 8.026C14.2444 8.05394 14.271 8.08297 14.2976 8.11204C14.4126 8.23786 14.5194 8.37632 14.6201 8.52157C14.6666 8.58868 14.7107 8.65865 14.7538 8.72945C14.6929 8.62952 14.7639 8.74885 14.772 8.7634C14.7923 8.80021 14.8122 8.83744 14.8316 8.87508C14.9167 9.03832 14.9909 9.21082 15.0579 9.38786C15.0732 9.42904 15.088 9.47055 15.1024 9.51236C15.1509 9.65201 15.071 9.40835 15.1149 9.55091C15.1413 9.63661 15.1644 9.72394 15.1865 9.81174C15.2349 10.0044 15.2702 10.2024 15.2969 10.402C15.2994 10.4206 15.3163 10.5773 15.303 10.4442C15.3078 10.4916 15.3112 10.5392 15.3147 10.5868C15.3218 10.6829 15.325 10.7794 15.3271 10.8758C15.3282 10.9257 15.328 10.9755 15.328 11.0254V13.8171C15.328 13.8525 15.3271 13.87 15.3258 13.9052C15.3204 14.0509 15.3432 13.7887 15.3238 13.9305C15.3181 13.9721 15.3093 14.013 15.3006 14.0537C15.2954 14.0778 15.2567 14.2096 15.2987 14.0796C15.2741 14.1558 15.2414 14.227 15.2066 14.2957C15.1481 14.4111 15.2636 14.2093 15.1949 14.3142C15.1677 14.3557 15.1372 14.3932 15.1064 14.43C15.0285 14.5232 15.1785 14.3653 15.0923 14.4454C15.0667 14.4693 15.0394 14.49 15.0122 14.5106C14.9848 14.5313 14.956 14.5487 14.9274 14.566C15.024 14.5077 14.9269 14.5605 14.9075 14.5685C14.8767 14.5812 14.8451 14.5901 14.8135 14.5989C14.7059 14.6289 14.9052 14.5897 14.7942 14.6015C14.7712 14.604 14.7478 14.6044 14.7247 14.6044H7.27433C7.2448 14.6044 7.23665 14.6034 7.20725 14.6015C7.09602 14.5944 7.29626 14.6244 7.18802 14.5989C7.1562 14.5914 7.12502 14.58 7.09394 14.5685C7.07349 14.5605 7.05324 14.5517 7.03322 14.542C7.08369 14.5718 7.08773 14.574 7.04535 14.5486C6.98812 14.5141 6.93484 14.4693 6.88358 14.4216C6.96879 14.5008 6.88707 14.4205 6.87195 14.4024C6.84882 14.3748 6.82768 14.3444 6.80661 14.3142C6.73547 14.212 6.85601 14.4086 6.79486 14.2957C6.77665 14.2621 6.76086 14.2263 6.74512 14.1907C6.72926 14.1549 6.71603 14.1172 6.70281 14.0796C6.74899 14.2109 6.69844 14.0422 6.69218 14.0131C6.68342 13.9721 6.67766 13.9302 6.67193 13.8884C6.69132 14.0298 6.67513 13.8898 6.67408 13.8616C6.67341 13.8433 6.67353 13.8248 6.67353 13.8064V11.1222C6.67353 10.9753 6.67408 10.8288 6.68103 10.682C6.6833 10.6341 6.68681 10.5862 6.69032 10.5384C6.69168 10.5198 6.70774 10.3616 6.69336 10.4946C6.70346 10.401 6.71717 10.3081 6.73203 10.2156C6.76383 10.018 6.8089 9.82432 6.86194 9.6348C6.87405 9.59146 6.88728 9.54869 6.90047 9.50588C6.86344 9.62588 6.90873 9.48464 6.91449 9.46808C6.94352 9.3847 6.97562 9.30319 7.00871 9.22246C7.08004 9.04843 7.16269 8.88274 7.25175 8.72348C7.32022 8.60101 7.19896 8.80906 7.27127 8.69062C7.29291 8.65517 7.31541 8.62066 7.33792 8.58612C7.3829 8.51709 7.43037 8.45094 7.47857 8.38586C7.5268 8.32075 7.57738 8.25867 7.62867 8.19771C7.65444 8.1674 7.68058 8.13762 7.70709 8.10841C7.72033 8.09364 7.83678 7.97374 7.758 8.0525C7.82243 7.98807 7.88941 7.92825 7.95732 7.87033C8.14791 7.70778 8.22667 7.38802 8.1073 7.12115C7.99636 6.87309 7.72649 6.76166 7.53533 6.92471C6.48954 7.81666 5.8374 9.3387 5.8374 10.9804V13.402C5.8374 13.8603 5.84593 14.281 6.00818 14.7072C6.24301 15.3239 6.77009 15.6996 7.28634 15.6996H14.7223C15.3296 15.6996 15.8586 15.1974 16.0752 14.4633C16.184 14.0944 16.1641 13.6949 16.1641 13.3072V10.9733C16.1641 10.1254 15.9883 9.28664 15.6646 8.55339C15.3682 7.88212 14.9385 7.31959 14.441 6.90378C14.2487 6.74308 13.9807 6.85037 13.869 7.10022C13.7504 7.36528 13.8272 7.68916 14.0189 7.84939ZM19.7895 7.03285C19.7889 7.1194 19.7851 7.20586 19.7782 7.29193C19.7899 7.14659 19.7772 7.28774 19.7735 7.3144C19.7677 7.3558 19.7601 7.39672 19.7526 7.43762C19.7377 7.51857 19.7175 7.59773 19.6958 7.67589C19.6591 7.80806 19.7334 7.56947 19.6894 7.69729C19.6723 7.74717 19.6527 7.79555 19.6328 7.84358C19.6032 7.91535 19.569 7.98382 19.5336 8.0509C19.4734 8.16489 19.59 7.96166 19.5237 8.06955C19.5043 8.10122 19.4836 8.13147 19.4628 8.16167C19.4214 8.22215 19.3763 8.2781 19.3302 8.33232C19.3071 8.35945 19.2829 8.38495 19.2587 8.41042C19.3455 8.31899 19.2353 8.42791 19.2172 8.44362C19.1653 8.48893 19.1106 8.52861 19.0552 8.56622C19.0273 8.58512 18.9987 8.60204 18.9701 8.61891C19.0688 8.56065 18.9712 8.61565 18.9527 8.62451C18.8928 8.65308 18.8312 8.67498 18.7693 8.69457C18.738 8.70445 18.7063 8.71206 18.6746 8.71963C18.6271 8.72942 18.632 8.72892 18.6892 8.71825C18.6675 8.72151 18.6458 8.7242 18.624 8.72642C18.5578 8.73387 18.4912 8.73384 18.4248 8.73136C18.3918 8.73011 18.359 8.72642 18.3261 8.72273C18.2153 8.71027 18.4172 8.74294 18.3082 8.71963C18.2449 8.70611 18.1825 8.68559 18.1208 8.66281C18.0902 8.65154 18.0602 8.63803 18.0302 8.62451C18.0103 8.61531 17.9906 8.60563 17.971 8.59547C18.0223 8.62463 18.0266 8.62682 17.9841 8.60201C17.9271 8.56834 17.8722 8.52857 17.8184 8.48699C17.7915 8.46624 17.7656 8.44362 17.7397 8.42106C17.7239 8.40733 17.6392 8.32428 17.7241 8.41045C17.6178 8.3025 17.5238 8.1749 17.4396 8.03789C17.5067 8.14699 17.4426 8.03829 17.4315 8.01745C17.4138 7.98394 17.3975 7.94915 17.3812 7.91441C17.3484 7.84461 17.3201 7.77139 17.2934 7.69733C17.2477 7.57057 17.3256 7.80718 17.287 7.67592C17.2756 7.63722 17.2659 7.5977 17.2562 7.55821C17.2332 7.46497 17.217 7.36912 17.2036 7.27281C17.1837 7.13048 17.2128 7.39425 17.2012 7.24935C17.1977 7.20639 17.1962 7.16324 17.1946 7.12012C17.1915 7.03317 17.194 6.94605 17.1984 6.85929C17.1998 6.8331 17.2144 6.68885 17.1983 6.83485C17.2029 6.79295 17.2094 6.75146 17.2158 6.71C17.2305 6.61444 17.2521 6.52092 17.2762 6.42877C17.2825 6.4049 17.3233 6.27498 17.2805 6.40599C17.2928 6.36822 17.3068 6.33136 17.3207 6.29457C17.3484 6.22129 17.3807 6.1511 17.4143 6.08226C17.4311 6.04794 17.4492 6.01487 17.4674 5.98182C17.4053 6.09497 17.4664 5.98492 17.479 5.96505C17.5254 5.89227 17.5766 5.82512 17.6296 5.7606C17.6523 5.73291 17.6761 5.70685 17.6999 5.68085C17.7358 5.6432 17.7321 5.64683 17.6889 5.6917C17.7056 5.67565 17.7226 5.66 17.7397 5.64477C17.7996 5.59048 17.8631 5.54342 17.9277 5.49955C17.9555 5.48065 17.9842 5.46376 18.0128 5.44689C17.9099 5.50756 18.0392 5.43719 18.0601 5.4278C18.1409 5.39148 18.2243 5.36623 18.3082 5.34614C18.4169 5.32014 18.2155 5.35831 18.3261 5.34307C18.37 5.33703 18.414 5.33484 18.458 5.33318C18.5352 5.3303 18.6125 5.33697 18.6892 5.34755C18.5783 5.33228 18.686 5.34886 18.7064 5.35374C18.7485 5.36379 18.79 5.37749 18.8314 5.39166C18.8724 5.40571 18.9126 5.42327 18.9527 5.44126C18.9725 5.45046 18.9922 5.46014 19.0118 5.4703C18.9606 5.44113 18.9562 5.43898 18.9987 5.46379C19.0652 5.50303 19.1289 5.55018 19.191 5.60018C19.2175 5.62152 19.2431 5.64474 19.2687 5.66795C19.3058 5.70363 19.3025 5.69943 19.2587 5.65538C19.275 5.67218 19.291 5.68933 19.3068 5.70688C19.3623 5.76764 19.4136 5.83479 19.4628 5.90413C19.491 5.94381 19.5173 5.98574 19.5432 6.02795C19.4734 5.9143 19.5565 6.0587 19.5685 6.0823C19.6089 6.1618 19.6437 6.24591 19.676 6.33136C19.6847 6.35433 19.7253 6.48284 19.6845 6.35133C19.7004 6.40255 19.7137 6.45502 19.7267 6.50762C19.7496 6.60086 19.7659 6.6967 19.7793 6.79302C19.7867 6.85522 19.7864 6.84884 19.7782 6.77387C19.7807 6.80231 19.7828 6.83078 19.7845 6.85935C19.7882 6.91699 19.7891 6.97497 19.7895 7.03285C19.7916 7.3313 19.978 7.58043 20.2075 7.58043C20.4338 7.58043 20.6277 7.33136 20.6256 7.03285C20.6198 6.23524 20.3606 5.45706 19.8979 4.93242C19.3979 4.36542 18.7657 4.16131 18.118 4.28322C17.5223 4.39533 16.9947 4.91061 16.6756 5.56382C16.3447 6.24115 16.2723 7.12801 16.4597 7.88885C16.6159 8.523 16.9433 9.05368 17.3699 9.4112C17.8168 9.78583 18.3485 9.87967 18.8649 9.78245C19.8791 9.59152 20.6161 8.33952 20.6256 7.03285C20.6277 6.73435 20.4338 6.48528 20.2075 6.48528C19.978 6.48528 19.7916 6.73441 19.7895 7.03285Z" fill="#D9D9D9"/>
<path d="M20.3835 9.71243C20.4125 9.73682 20.4412 9.76182 20.4696 9.78743C20.4814 9.79804 20.5721 9.88969 20.495 9.80996C20.5489 9.86572 20.5997 9.92655 20.6492 9.98884C20.6987 10.0511 20.7448 10.1181 20.7894 10.1864C20.7988 10.2007 20.8681 10.3197 20.8092 10.2169C20.8368 10.265 20.8623 10.3151 20.8874 10.3654C20.9252 10.4413 20.9587 10.5206 20.9907 10.6009C21.0067 10.6412 21.0213 10.6825 21.0358 10.7238C20.9943 10.6057 21.0413 10.7438 21.0466 10.7621C21.0717 10.8482 21.0919 10.9366 21.1102 11.0255C21.1195 11.0705 21.127 11.1159 21.1345 11.1614C21.1385 11.1855 21.162 11.3839 21.1486 11.2476C21.1877 11.6446 21.1639 12.0626 21.1639 12.4615V13.4345C21.1639 13.4633 21.1628 13.4921 21.1607 13.5207C21.169 13.4454 21.1685 13.4385 21.1591 13.4998C21.1545 13.527 21.1163 13.6533 21.1593 13.5245C21.1468 13.5619 21.1304 13.5967 21.114 13.6313C21.0598 13.7463 21.172 13.5479 21.1027 13.6474C21.0886 13.6676 21.0098 13.7513 21.0943 13.6678C21.0694 13.6923 21.0422 13.7122 21.0151 13.7318C20.9242 13.7979 21.0985 13.696 20.9989 13.7388C20.9777 13.7479 20.8744 13.7695 20.9842 13.7518C20.9643 13.755 20.9376 13.756 20.9176 13.756H17.1993C16.9714 13.756 16.7813 14.0051 16.7813 14.3036C16.7813 14.6021 16.9714 14.8511 17.1993 14.8511H20.7057C21.0003 14.8511 21.2922 14.8349 21.541 14.5891C21.8226 14.3107 22 13.9021 22 13.4318V11.6741C22 10.9851 21.8682 10.3123 21.5712 9.73762C21.3688 9.34599 21.1091 9.02211 20.8056 8.76691C20.6136 8.60548 20.3451 8.71406 20.2336 8.96332C20.1148 9.22891 20.1922 9.5515 20.3835 9.71243ZM4.8079 7.03285C4.80729 7.1194 4.80353 7.20586 4.79662 7.29193C4.8083 7.14659 4.79562 7.28774 4.79189 7.3144C4.78613 7.3558 4.77856 7.39672 4.77104 7.43762C4.7561 7.51857 4.73599 7.59773 4.71425 7.67589C4.67749 7.80806 4.75183 7.56947 4.70787 7.69729C4.69072 7.74717 4.67116 7.79555 4.65128 7.84358C4.62159 7.91535 4.58747 7.98382 4.55202 8.0509C4.4918 8.16489 4.60845 7.96166 4.54218 8.06955C4.52274 8.10122 4.502 8.13147 4.48129 8.16167C4.43987 8.22215 4.39477 8.2781 4.34864 8.33232C4.32554 8.35945 4.30136 8.38495 4.27719 8.41042C4.36395 8.31899 4.25368 8.42791 4.23567 8.44362C4.18369 8.48893 4.12898 8.52861 4.07358 8.56622C4.04573 8.58512 4.01711 8.60204 3.98852 8.61891C4.08727 8.56065 3.98964 8.61565 3.9711 8.62451C3.91124 8.65308 3.84965 8.67498 3.78776 8.69457C3.75644 8.70445 3.72474 8.71206 3.69306 8.71963C3.64557 8.72942 3.65044 8.72892 3.70768 8.71825C3.68597 8.72151 3.6642 8.7242 3.64242 8.72642C3.5762 8.73387 3.50962 8.73384 3.44328 8.73136C3.41032 8.73011 3.37745 8.72642 3.3446 8.72273C3.23376 8.71027 3.43569 8.74294 3.32668 8.71963C3.26333 8.70611 3.20098 8.68559 3.13925 8.66281C3.1087 8.65154 3.07865 8.63803 3.04864 8.62451C3.02878 8.61532 3.00905 8.60564 2.98947 8.59547C3.04074 8.62463 3.04513 8.62682 3.00259 8.60201C2.94552 8.56834 2.89069 8.52857 2.83685 8.48699C2.81002 8.46624 2.78408 8.44362 2.75818 8.42106C2.74241 8.40733 2.65771 8.32428 2.74256 8.41045C2.63625 8.3025 2.5423 8.1749 2.45812 8.03789C2.52515 8.14699 2.46105 8.03829 2.45004 8.01745C2.43232 7.98394 2.416 7.94915 2.39971 7.91441C2.36693 7.84461 2.3386 7.77139 2.31189 7.69733C2.26615 7.57057 2.34414 7.80718 2.30552 7.67592C2.29412 7.63722 2.2844 7.5977 2.27468 7.55821C2.25172 7.46497 2.2355 7.36912 2.22207 7.27281C2.20222 7.13048 2.23137 7.39425 2.21971 7.24935C2.21627 7.20639 2.21469 7.16324 2.21314 7.12012C2.20996 7.03317 2.21249 6.94605 2.21691 6.85929C2.21825 6.8331 2.23287 6.68885 2.21687 6.83485C2.22145 6.79295 2.22785 6.75146 2.23428 6.71C2.24902 6.61444 2.27059 6.52092 2.29472 6.42877C2.30098 6.4049 2.34185 6.27498 2.29899 6.40599C2.31134 6.36822 2.3253 6.33136 2.3392 6.29457C2.36693 6.22129 2.39918 6.1511 2.43279 6.08226C2.44956 6.04794 2.46774 6.01487 2.4859 5.98182C2.42376 6.09497 2.48482 5.98492 2.49748 5.96505C2.54385 5.89227 2.59514 5.82512 2.64808 5.7606C2.6708 5.73291 2.69461 5.70685 2.71843 5.68085C2.75431 5.6432 2.75063 5.64683 2.70742 5.6917C2.72413 5.67566 2.74106 5.66001 2.75821 5.64477C2.81809 5.59048 2.88159 5.54342 2.94618 5.49955C2.97404 5.48065 3.00266 5.46376 3.03125 5.44689C2.92839 5.50756 3.05774 5.43719 3.0786 5.4278C3.15937 5.39148 3.24279 5.36623 3.32671 5.34614C3.43535 5.32014 3.23399 5.35831 3.34462 5.34307C3.38843 5.33703 3.43251 5.33484 3.47651 5.33318C3.55372 5.3303 3.63095 5.33697 3.70771 5.34755C3.59674 5.33228 3.7045 5.34886 3.72486 5.35374C3.76695 5.36379 3.80847 5.37749 3.84984 5.39166C3.89084 5.40571 3.93109 5.42327 3.97115 5.44126C3.99101 5.45045 4.01074 5.46013 4.03032 5.4703C3.97906 5.44113 3.97466 5.43898 4.01721 5.46379C4.08376 5.50303 4.1474 5.55018 4.20949 5.60018C4.236 5.62152 4.26161 5.64474 4.2872 5.66795C4.32427 5.70363 4.32095 5.69943 4.27723 5.65538C4.29347 5.67216 4.30947 5.68933 4.32523 5.70688C4.38079 5.76764 4.43208 5.83479 4.48134 5.90413C4.50953 5.94381 4.53576 5.98574 4.5617 6.02795C4.4919 5.9143 4.57505 6.0587 4.58705 6.0823C4.62744 6.1618 4.66222 6.24591 4.69454 6.33136C4.70324 6.35433 4.7438 6.48284 4.70298 6.35133C4.71889 6.40255 4.73222 6.45502 4.74516 6.50762C4.76812 6.60086 4.78434 6.6967 4.79777 6.79302C4.80522 6.85522 4.80484 6.84884 4.79669 6.77387C4.79918 6.80231 4.80125 6.83078 4.80293 6.85935C4.80663 6.91699 4.80747 6.97497 4.8079 7.03285C4.81007 7.3313 4.99642 7.58043 5.22595 7.58043C5.45219 7.58043 5.64617 7.33136 5.644 7.03285C5.63819 6.23524 5.37905 5.45706 4.9164 4.93242C4.41636 4.36542 3.7841 4.16131 3.13639 4.28322C2.5407 4.39533 2.01319 4.91061 1.69406 5.56382C1.36313 6.24115 1.2908 7.12801 1.47818 7.88885C1.63437 8.523 1.96176 9.05368 2.38834 9.4112C2.83529 9.78583 3.36696 9.87967 3.88336 9.78245C4.8976 9.59152 5.63451 8.33952 5.64402 7.03285C5.64619 6.73435 5.45222 6.48528 5.22597 6.48528C4.9964 6.48528 4.81007 6.73441 4.8079 7.03285ZM4.80216 13.7559H1.09907C1.06417 13.7559 0.961806 13.7356 1.06434 13.7588C1.03297 13.7517 1.00263 13.7387 0.972484 13.7258C1.06952 13.7674 0.981394 13.7282 0.959106 13.712C0.939518 13.6978 0.862955 13.6158 0.943292 13.7031C0.924731 13.6829 0.838827 13.5502 0.904855 13.6648C0.886127 13.6322 0.871005 13.5965 0.855979 13.5611C0.80555 13.442 0.883332 13.6703 0.8507 13.5399C0.843748 13.5121 0.827241 13.3768 0.840762 13.5207C0.838469 13.4962 0.837537 13.4582 0.837537 13.4338V11.582C0.837537 11.4853 0.841957 11.3889 0.848956 11.2926C0.860446 11.1346 0.834336 11.4055 0.853973 11.2499C0.859825 11.2035 0.867494 11.1575 0.875162 11.1115C0.890355 11.0205 0.910827 10.931 0.932972 10.8426C0.943961 10.7987 0.956646 10.7556 0.969307 10.7125C0.93345 10.8345 0.990209 10.6552 0.998212 10.6335C1.02857 10.5513 1.0636 10.4722 1.1 10.3945C1.11816 10.3557 1.13775 10.3181 1.15733 10.2806C1.16512 10.2656 1.23497 10.1452 1.17475 10.2459C1.26729 10.0913 1.37491 9.95295 1.49001 9.82742C1.57861 9.73073 1.42204 9.89166 1.51535 9.8027C1.5434 9.77598 1.57245 9.75104 1.60145 9.72613C1.79165 9.56289 1.87103 9.24439 1.75142 8.97696C1.64072 8.72946 1.37025 8.61675 1.17945 8.78055C0.62727 9.25447 0.221546 9.97454 0.0688974 10.8204C-0.0155488 11.2882 0.0013882 11.7696 0.0013882 12.2461V13.4283C0.0013882 14.2138 0.499322 14.8511 1.09568 14.8511H4.80209C5.02999 14.8511 5.22014 14.602 5.22014 14.3035C5.22014 14.005 5.03004 13.7559 4.80216 13.7559Z" fill="#D9D9D9"/>
</svg>
