<svg width="18" height="22" viewBox="0 0 18 22" fill="none" xmlns="http://www.w3.org/2000/svg">
<path d="M17.0654 2.07601H15.6049V1.3875C15.6049 1.1458 15.4087 0.95 15.1668 0.95H3.28671C3.04481 0.95 2.84857 1.1458 2.84857 1.3875V2.07601H1.38814C1.14624 2.07601 0.95 2.27181 0.95 2.51351V4.24144C0.95 5.4681 1.3608 6.67025 2.13659 7.71788C2.8624 8.69803 3.88515 9.51569 5.0977 10.0882C5.7656 10.8476 6.55265 11.4274 7.41672 11.7693V12.631C7.41672 13.6386 7.18312 14.5805 6.76177 15.2837C6.39133 15.9019 5.93265 16.2407 5.46953 16.2659H3.98169C3.73979 16.2659 3.54355 16.4617 3.54355 16.7034V21.0308C3.54355 21.2725 3.73979 21.4683 3.98169 21.4683H14.4719C14.7138 21.4683 14.91 21.2725 14.91 21.0308V16.7034C14.91 16.4617 14.7138 16.2659 14.4719 16.2659H12.984C12.5209 16.2407 12.0622 15.9019 11.6918 15.2837C11.2704 14.5805 11.0368 13.6387 11.0368 12.631V11.7693C11.9009 11.4274 12.6879 10.8476 13.3558 10.0883C14.5684 9.51575 15.5911 8.69807 16.317 7.71791C17.0928 6.67027 17.5035 5.46811 17.5035 4.24144V2.51351C17.5036 2.27181 17.3073 2.07601 17.0654 2.07601ZM1.82628 4.24144V2.95101H2.84856V3.59935C2.84856 5.34462 3.24339 6.9696 3.92053 8.32265C2.59627 7.23568 1.82628 5.77378 1.82628 4.24144ZM14.0338 20.5933H4.41983V17.1409H5.37586C5.3881 17.1419 5.40071 17.1426 5.41363 17.1426C5.44046 17.1426 5.46715 17.142 5.49371 17.1409H12.9598C12.9864 17.142 13.0131 17.1426 13.0399 17.1426C13.0528 17.1426 13.0654 17.1419 13.0777 17.1409H14.0338L14.0338 20.5933ZM10.9398 15.733C11.0576 15.9295 11.1853 16.1074 11.3222 16.2659H7.13131C7.2682 16.1074 7.39596 15.9295 7.51372 15.733C8.01713 14.8928 8.293 13.7911 8.293 12.631V12.0274C8.59785 12.0874 8.90964 12.1186 9.22678 12.1186C9.54391 12.1186 9.85571 12.0874 10.1606 12.0274V12.631C10.1606 13.7911 10.4364 14.8928 10.9398 15.733ZM9.22678 11.2436C7.93762 11.2436 6.70448 10.6161 5.71056 9.4583C5.70425 9.45043 5.6976 9.44264 5.69056 9.43502C5.58588 9.31193 5.48389 9.18298 5.38482 9.0482C4.31526 7.59303 3.72484 5.65814 3.72484 3.59935V1.825H14.7287V3.59935C14.7287 5.65815 14.1383 7.59303 13.0687 9.0482C12.9696 9.18311 12.8675 9.31217 12.7627 9.43537C12.7558 9.44277 12.7494 9.45031 12.7433 9.45792C11.7493 10.616 10.5161 11.2436 9.22678 11.2436ZM16.6273 4.24144C16.6273 5.77382 15.8573 7.23575 14.5329 8.32273C15.2101 6.96967 15.6049 5.34466 15.6049 3.59935V2.95101H16.6273L16.6273 4.24144Z" fill="#D9D9D9" stroke="#D9D9D9" stroke-width="0.1"/>
</svg>
