<svg width="20" height="20" viewBox="0 0 20 20" fill="none" xmlns="http://www.w3.org/2000/svg">
<path d="M10 0C4.48438 0 0 4.48438 0 10C0 15.5156 4.48438 20 10 20C15.5156 20 20 15.5156 20 10C20 4.48438 15.5156 0 10 0ZM10 19.2188C4.92188 19.2188 0.78125 15.0781 0.78125 10C0.78125 4.92188 4.92188 0.78125 10 0.78125C15.0781 0.78125 19.2188 4.92188 19.2188 10C19.2188 15.0781 15.0781 19.2188 10 19.2188Z" fill="#D9D9D9"/>
<path d="M7.5939 2.5625C7.5314 2.40625 7.35952 2.3125 7.18765 2.375C2.98452 3.92188 0.828273 8.60938 2.37515 12.8125C2.42202 12.9375 2.54702 13.0156 2.67202 13.0156C2.70327 13.0156 2.75015 13.0156 2.7814 13C2.93765 12.9375 3.0314 12.7656 2.9689 12.5938C1.5314 8.70312 3.5314 4.39062 7.4064 2.96875C7.57827 2.90625 7.6564 2.71875 7.5939 2.5625ZM17.6251 7.1875C17.5626 7.03125 17.3908 6.9375 17.2189 7C17.0626 7.0625 16.9689 7.23438 17.0314 7.40625C18.4533 11.2812 16.4689 15.6094 12.5783 17.0312C12.422 17.0938 12.3283 17.2656 12.3908 17.4375C12.4376 17.5625 12.5626 17.6406 12.6876 17.6406C12.7189 17.6406 12.7658 17.6406 12.797 17.625C17.0158 16.0781 19.172 11.3906 17.6251 7.1875ZM5.0314 9.98438V10.0156C5.0314 10.0312 5.0314 10.0312 5.04702 10.0469V10.0625C5.04702 10.0781 5.06265 10.0781 5.06265 10.0938L5.07827 10.1094L5.0939 10.125C5.0939 10.1406 5.10952 10.1406 5.10952 10.1562L5.12515 10.1719C5.14077 10.1875 5.14077 10.1875 5.1564 10.1875L9.8439 12.9375H9.85952C9.87515 12.9531 9.89077 12.9531 9.9064 12.9531H9.92202C9.95327 12.9531 9.9689 12.9688 10.0001 12.9688C10.0314 12.9688 10.047 12.9688 10.0783 12.9531H10.0939C10.1095 12.9531 10.1251 12.9375 10.1408 12.9375H10.1564L14.8283 10.2031C14.8283 10.2031 14.8439 10.2031 14.8439 10.1875L14.8908 10.1406L14.9064 10.125C14.922 10.1094 14.9376 10.0781 14.9533 10.0625V10.0469C14.9533 10.0312 14.9689 10.0312 14.9689 10.0156V9.89062C14.9689 9.875 14.9689 9.875 14.9533 9.85938V9.82812C14.9533 9.8125 14.9376 9.8125 14.9376 9.79688C14.9376 9.79688 14.9376 9.78125 14.922 9.78125L10.2658 2.01562C10.2501 2 10.2345 1.96875 10.2189 1.95312H10.2033C10.1876 1.9375 10.172 1.92188 10.1564 1.92188C10.1564 1.92188 10.1408 1.92187 10.1408 1.90625C10.1251 1.89062 10.1095 1.89063 10.0939 1.89063H10.0783C10.047 1.875 10.0314 1.875 10.0001 1.875C9.9689 1.875 9.95327 1.875 9.92202 1.89063H9.9064C9.89077 1.89063 9.87515 1.90625 9.85952 1.90625C9.85952 1.90625 9.8439 1.90625 9.8439 1.92188C9.82827 1.9375 9.81265 1.9375 9.79702 1.95312H9.7814C9.76577 1.96875 9.75015 1.98437 9.73452 2.01562L5.06265 9.78125C5.06265 9.78125 5.06265 9.79688 5.04702 9.79688C5.04702 9.8125 5.0314 9.8125 5.0314 9.82812V9.85938C5.0314 9.875 5.0314 9.875 5.01577 9.89062V9.95312C5.01577 9.96875 5.01577 9.96875 5.0314 9.98438ZM9.68765 12.125L6.01577 9.96875L9.68765 8.3125V12.125ZM10.3126 8.3125L13.9845 9.98438L10.3126 12.125V8.3125ZM10.3126 7.625V3.3125L13.8751 9.25L10.3126 7.625ZM9.68765 7.625L6.12515 9.23438L9.68765 3.29688V7.625Z" fill="#D9D9D9"/>
<path d="M14.8906 10.9843C14.7968 10.8749 14.625 10.8593 14.5 10.9218L9.99997 13.6249L5.49997 10.9218C5.37497 10.8437 5.2031 10.8749 5.10935 10.9843C5.0156 11.0937 4.99997 11.2499 5.0781 11.3749L9.74997 17.9374C9.81247 18.0156 9.90622 18.0624 9.99997 18.0624C10.0937 18.0624 10.2031 18.0156 10.25 17.9374L14.9218 11.3749C15 11.2499 15 11.0937 14.8906 10.9843ZM9.68747 14.1718V16.7812L6.4531 12.2343L9.68747 14.1718ZM10.3125 16.7812V14.1718L13.5468 12.2343L10.3125 16.7812Z" fill="#D9D9D9"/>
</svg>
