<svg width="20" height="20" viewBox="0 0 20 20" fill="none" xmlns="http://www.w3.org/2000/svg">
<path d="M7.87809 10C5.57726 10 3.71143 7.30083 3.71143 5V4.16667C3.71143 1.86583 5.57726 0 7.87809 0C10.1789 0 12.0448 1.86583 12.0448 4.16667V5C12.0448 7.30083 10.1789 10 7.87809 10Z" fill="white"/>
<path d="M10.3782 16.6667C10.3782 14.9117 11.1565 13.3417 12.3832 12.2725C11.1315 11.9442 9.57651 11.6667 7.87817 11.6667C5.52484 11.6667 3.43734 12.1983 2.06651 12.6608C1.05317 13.0033 0.378174 13.9575 0.378174 15.0267V18.3333H10.6232C10.4657 17.805 10.3782 17.2458 10.3782 16.6667Z" fill="white"/>
<path d="M14.545 19.5117L11.7 16.6667L12.8783 15.4883L14.545 17.155L18.7116 12.9883L19.89 14.1667L14.545 19.5117Z" fill="white"/>
</svg>
