<svg width="22" height="21" viewBox="0 0 22 21" fill="none" xmlns="http://www.w3.org/2000/svg">
<path fill-rule="evenodd" clip-rule="evenodd" d="M9.87137 0.992773C10.5832 1.30389 11.3974 1.30275 12.11 0.993555V0.993555C13.4108 0.42915 14.9387 0.920633 15.655 2.14441V2.14441C16.0478 2.81552 16.7059 3.29422 17.4647 3.4644V3.4644C18.8508 3.77531 19.7969 5.07197 19.6596 6.48591V6.48591C19.5845 7.26028 19.8385 8.03745 20.3518 8.62206V8.62206C21.2877 9.68789 21.2967 11.2958 20.358 12.3591V12.3591C19.8429 12.9425 19.5932 13.725 19.666 14.4999V14.4999C19.7983 15.9081 18.8637 17.2191 17.4827 17.5252V17.5252C16.7234 17.6934 16.0632 18.1777 15.6683 18.8477V18.8477C14.9502 20.0663 13.425 20.5734 12.1292 20.0063V20.0063C11.4171 19.6946 10.6025 19.6957 9.88956 20.0054V20.0054C8.58896 20.5704 7.06111 20.0791 6.34483 18.8553V18.8553C5.95216 18.1844 5.29448 17.7059 4.53595 17.5357V17.5357C3.14911 17.2247 2.20312 15.9275 2.34037 14.5129V14.5129C2.41553 13.7381 2.16148 12.9607 1.6479 12.3758V12.3758C0.712055 11.31 0.703322 9.70241 1.64201 8.63911V8.63911C2.15706 8.05568 2.40683 7.27375 2.33399 6.49892V6.49892C2.20162 5.09066 3.13638 3.78092 4.51733 3.47484V3.47484C5.27658 3.30656 5.93676 2.82231 6.33162 2.15233V2.15233C7.04991 0.933542 8.57509 0.426169 9.87137 0.992773V0.992773Z" fill="white"/>
<path fill-rule="evenodd" clip-rule="evenodd" d="M9.90706 1.89271C10.5492 2.17236 11.2851 2.17046 11.928 1.89254V1.89254C13.0993 1.38615 14.4779 1.82635 15.1243 2.92667V2.92667C15.4791 3.53078 16.076 3.96212 16.7597 4.11493V4.11493C18.0051 4.39324 18.8621 5.55949 18.7383 6.82951V6.82951C18.6705 7.52634 18.8996 8.22565 19.3625 8.75092V8.75092C20.2063 9.70845 20.2143 11.156 19.368 12.1112V12.1112C18.9036 12.6354 18.678 13.336 18.7437 14.0331V14.0331C18.8636 15.3041 18.019 16.4802 16.7724 16.7555V16.7555C16.0883 16.9065 15.4942 17.3403 15.1375 17.9433V17.9433C14.4875 19.0421 13.1136 19.4957 11.9433 18.9854V18.9854C11.3009 18.7053 10.5646 18.7072 9.92147 18.9855V18.9855C8.75032 19.4925 7.37176 19.0524 6.7254 17.952V17.952C6.37064 17.3481 5.77424 16.917 5.09068 16.7642V16.7642C3.84474 16.4857 2.98778 15.3191 3.1115 14.0484V14.0484C3.17939 13.3512 2.95024 12.6517 2.48712 12.1262V12.1262C1.64331 11.1687 1.6355 9.72143 2.48187 8.76618V8.76618C2.94625 8.24204 3.17187 7.54196 3.1061 6.84479V6.84479C2.9862 5.57384 3.83088 4.39882 5.07744 4.12353V4.12353C5.76152 3.97245 6.35564 3.53876 6.7123 2.93578V2.93578C7.36239 1.83672 8.73635 1.38284 9.90706 1.89271V1.89271Z" fill="#3840F7"/>
<path d="M7.31737 11.4528C6.33683 10.398 7.84237 8.82618 8.93275 9.82126C9.31721 10.1718 9.87614 10.6839 10.2638 11.0312L13.2523 7.35941C14.2926 6.28357 15.9354 7.86341 14.9081 8.94572L11.1539 13.4236C10.9486 13.6404 10.667 13.7691 10.3687 13.7823C10.0703 13.7956 9.77844 13.6925 9.55468 13.4946C8.91821 12.8889 7.98452 12.0182 7.31737 11.4528Z" fill="white"/>
</svg>
