<svg width="19" height="19" viewBox="0 0 19 19" fill="none" xmlns="http://www.w3.org/2000/svg">
<path d="M15.8333 5.54166H3.16659C2.29213 5.54166 1.58325 6.25055 1.58325 7.125V15.0417C1.58325 15.9161 2.29213 16.625 3.16659 16.625H15.8333C16.7077 16.625 17.4166 15.9161 17.4166 15.0417V7.125C17.4166 6.25055 16.7077 5.54166 15.8333 5.54166Z" fill="#FF754C" stroke="#FF754C" stroke-linecap="round" stroke-linejoin="round"/>
<path d="M12.6666 16.625V3.95833C12.6666 3.53841 12.4998 3.13568 12.2028 2.83875C11.9059 2.54181 11.5032 2.375 11.0833 2.375H7.91659C7.49666 2.375 7.09393 2.54181 6.797 2.83875C6.50007 3.13568 6.33325 3.53841 6.33325 3.95833V16.625" stroke="#FF754C" stroke-linecap="round" stroke-linejoin="round"/>
</svg>
