<svg width="20" height="17" viewBox="0 0 20 17" fill="none" xmlns="http://www.w3.org/2000/svg">
    <path d="M19.363 14.4851C20.0304 15.073 20.0304 15.9875 19.363 16.5754C19.0293 16.8694 18.6214 17 18.1765 17C17.7315 17 17.3237 16.8694 16.99 16.5754L10.2045 10.5985L3.41904 16.5754C3.08533 16.8694 2.67746 17 2.23251 17C1.78756 17 1.37969 16.8694 1.04598 16.5754C0.378554 15.9875 0.378554 15.073 1.04598 14.4851L7.83144 8.50817L1.04598 2.53122C0.378554 1.94332 0.378554 1.02882 1.04598 0.440922C1.7134 -0.146974 2.75161 -0.146974 3.41904 0.440922L10.2045 6.41787L16.99 0.440922C17.6574 -0.146974 18.6956 -0.146974 19.363 0.440922C20.0304 1.02882 20.0304 1.94332 19.363 2.53122L12.5776 8.50817L19.363 14.4851Z" fill="white"/>
</svg>
