<svg width="25" height="29" viewBox="0 0 25 29" fill="none" xmlns="http://www.w3.org/2000/svg">
<g clip-path="url(#clip0_1109_249)">
<path d="M22.0714 0H2.92872C2.54318 0.000936076 2.16161 0.078941 1.80577 0.229561C1.44994 0.380181 1.12682 0.600465 0.854859 0.877837C0.582902 1.15521 0.367434 1.48424 0.220758 1.84613C0.0740823 2.20802 -0.000928392 2.5957 8.91617e-06 2.98702V22.591C-0.000941237 22.9823 0.0740574 23.37 0.220722 23.7319C0.367387 24.0938 0.582846 24.4228 0.854796 24.7002C1.12675 24.9776 1.44986 25.1979 1.80569 25.3485C2.16152 25.4991 2.54309 25.5771 2.92862 25.578H19.1286L18.3714 22.8955L20.2 24.621L21.9285 26.245L25 29V2.98702C25.001 2.5957 24.926 2.20803 24.7793 1.84614C24.6326 1.48424 24.4172 1.15522 24.1452 0.877843C23.8733 0.60047 23.5502 0.380184 23.1943 0.229563C22.8385 0.0789417 22.4569 0.000936064 22.0714 0V0ZM16.5571 18.9371C16.5571 18.9371 16.0429 18.3135 15.6143 17.7625C17.4858 17.226 18.2 16.037 18.2 16.037C17.686 16.3843 17.1349 16.6713 16.5571 16.8924C15.8926 17.1804 15.1975 17.3896 14.4858 17.516C13.2623 17.7446 12.0075 17.7397 10.7858 17.5015C10.0686 17.359 9.36585 17.1503 8.68614 16.8781C8.32777 16.7382 7.97929 16.5734 7.64317 16.385C7.6004 16.356 7.55753 16.3415 7.51466 16.3125C7.49317 16.3017 7.47382 16.2869 7.45753 16.2691C7.2004 16.1241 7.05714 16.0226 7.05714 16.0226C7.05714 16.0226 7.74288 17.1823 9.55714 17.7335C9.12862 18.2846 8.60011 18.937 8.60011 18.937C5.44288 18.8355 4.24298 16.7331 4.24298 16.7331C4.24298 12.0644 6.30011 8.2795 6.30011 8.2795C8.35724 6.71338 10.3144 6.757 10.3144 6.757L10.4572 6.93105C7.88575 7.68487 6.70001 8.83051 6.70001 8.83051C6.70001 8.83051 7.01427 8.65656 7.54278 8.41004C9.0714 7.72848 10.2858 7.54005 10.7858 7.49654C10.8657 7.47968 10.947 7.46997 11.0286 7.4675C11.9859 7.34091 12.9548 7.3312 13.9144 7.43855C15.4234 7.61349 16.8841 8.08635 18.2143 8.83051C18.2143 8.83051 17.0858 7.74305 14.6571 6.98904L14.8571 6.75709C14.8571 6.75709 16.8143 6.71348 18.8714 8.2796C18.8714 8.2796 20.9286 12.064 20.9286 16.7331C20.9286 16.7331 19.7143 18.8355 16.5571 18.937V18.9371ZM9.91427 12.1655C9.10001 12.1655 8.45724 12.8905 8.45724 13.775C8.45724 14.6594 9.11427 15.3845 9.91427 15.3845C10.7286 15.3845 11.3714 14.6595 11.3714 13.775C11.3858 12.8905 10.7286 12.1655 9.91436 12.1655H9.91427ZM15.1286 12.1655C14.3143 12.1655 13.6714 12.8905 13.6714 13.775C13.6714 14.6594 14.3286 15.3845 15.1286 15.3845C15.9429 15.3845 16.5857 14.6595 16.5857 13.775C16.5857 12.8904 15.9429 12.1655 15.1286 12.1655Z" fill="#7289DA"/>
</g>
<defs>
<clipPath id="clip0_1109_249">
<rect width="25" height="29" fill="white"/>
</clipPath>
</defs>
</svg>
