<svg width="70" height="56" viewBox="0 0 70 56" fill="none" xmlns="http://www.w3.org/2000/svg">
<rect width="69.4118" height="56" rx="16" fill="#F0F3F6" fill-opacity="0.1"/>
<g clip-path="url(#clip0_1109_282)">
<path d="M34.9416 35.5895C34.9416 33.0472 36.4894 30.8609 38.72 29.8467C37.7744 29.552 36.4674 29.081 36.2318 28.567C36.1228 28.3324 36.1142 27.8855 36.1508 27.397C37.0766 26.3215 37.6831 24.963 38.007 24.0964C38.4835 24.4182 38.6769 24.0185 38.6769 24.0185C40.1769 21.9009 39.2443 21.0385 39.0422 20.8818C38.8389 20.7246 38.6369 20.9993 38.6369 20.9993L38.6157 21.0581C38.9014 15.4166 33.9224 15.0281 33.3369 15.0018C33.3464 15.0039 33.2865 15.0081 32.9531 15.0164C32.6154 15.0081 32.5568 15.0039 32.5676 15.0018C31.9942 15.0268 26.9958 15.4078 27.2819 21.0581L27.2608 20.9993C27.2608 20.9993 27.0587 20.7246 26.8554 20.8818C26.6538 21.0385 25.7207 21.9009 27.2211 24.0185C27.2211 24.0185 27.4141 24.4182 27.8906 24.0964C28.2145 24.963 28.8211 26.3215 29.7468 27.397C29.7834 27.8855 29.7752 28.3324 29.6663 28.567C29.3419 29.2732 26.9915 29.9005 26.3436 30.0964C25.6953 30.2932 22.4528 30.8813 22.1293 34.2923L21.6218 38.0568C21.6218 38.0568 22.7763 39.6258 24.6403 39.3507C24.6403 39.3507 28.5311 41.0385 32.643 40.9993C32.7209 40.9997 32.9531 40.996 32.9531 40.996C32.9531 40.996 33.1814 40.9997 33.259 40.9993C34.7228 41.0135 36.1543 40.8071 37.3962 40.5374C35.901 39.3736 34.9416 37.5912 34.9416 35.5895Z" fill="white"/>
<path d="M44.8824 36.5994H42.4963V38.9079H40.7068V36.5994H38.3216V34.8679H40.7068V32.5594H42.4963V34.8679L44.8824 34.8441V36.5994ZM41.5025 30.6357C40.7253 30.6357 39.9909 30.8083 39.3313 31.108C37.591 31.8995 36.3831 33.6057 36.3831 35.5894C36.3831 37.1513 37.1313 38.5423 38.2983 39.4502C39.1758 40.133 40.289 40.5436 41.5025 40.5436C44.3301 40.5436 46.6219 38.3251 46.6219 35.5894C46.6219 32.8533 44.3301 30.6357 41.5025 30.6357Z" fill="white"/>
</g>
<defs>
<clipPath id="clip0_1109_282">
<rect width="25" height="26" fill="white" transform="translate(21.6218 15)"/>
</clipPath>
</defs>
</svg>
