<svg width="20" height="20" viewBox="0 0 20 20" fill="none" xmlns="http://www.w3.org/2000/svg">
<path d="M19.0239 9.92174C19.0239 9.1237 18.9591 8.54133 18.819 7.93741H9.70605V11.5394H15.0551C14.9473 12.4345 14.365 13.7826 13.0708 14.6885L13.0527 14.809L15.934 17.0412L16.1336 17.0611C17.9669 15.3679 19.0239 12.8767 19.0239 9.92174Z" fill="#4285F4"/>
<path d="M9.70605 19.4121C12.3266 19.4121 14.5267 18.5493 16.1336 17.0611L13.0708 14.6884C12.2512 15.26 11.1511 15.659 9.70605 15.659C7.13935 15.659 4.9609 13.9659 4.18434 11.6257L4.07051 11.6354L1.07446 13.954L1.03528 14.063C2.63137 17.2336 5.90987 19.4121 9.70605 19.4121Z" fill="#34A853"/>
<path d="M4.18435 11.6257C3.97945 11.0218 3.86086 10.3747 3.86086 9.70606C3.86086 9.03738 3.97945 8.39033 4.17357 7.78641L4.16814 7.65779L1.13454 5.30186L1.03529 5.34908C0.377462 6.6648 0 8.14231 0 9.70606C0 11.2698 0.377462 12.7472 1.03529 14.063L4.18435 11.6257Z" fill="#FBBC05"/>
<path d="M9.70605 3.75298C11.5286 3.75298 12.758 4.54025 13.459 5.19815L16.1983 2.52357C14.516 0.959825 12.3266 0 9.70605 0C5.90987 0 2.63137 2.17845 1.03528 5.34907L4.17356 7.78641C4.9609 5.44617 7.13935 3.75298 9.70605 3.75298Z" fill="#EB4335"/>
<path d="M16.549 18.9351C16.552 18.9317 16.5542 18.9277 16.5556 18.9235C16.557 18.9192 16.5576 18.9147 16.5573 18.9102C16.5482 18.911 16.5398 18.9152 16.5339 18.9221C16.531 18.9254 16.5289 18.9292 16.5276 18.9333C16.5262 18.9375 16.5257 18.9418 16.5261 18.9462C16.5305 18.9462 16.5349 18.9452 16.5388 18.9433C16.5428 18.9414 16.5463 18.9386 16.549 18.9351ZM16.5686 18.9931C16.5687 18.9871 16.5703 18.9812 16.5732 18.976C16.5762 18.9708 16.5804 18.9665 16.5855 18.9634C16.5823 18.9587 16.578 18.9549 16.5731 18.9522C16.5681 18.9495 16.5626 18.948 16.557 18.9478C16.5448 18.9465 16.5336 18.9549 16.5271 18.9549C16.5206 18.9549 16.5115 18.9479 16.5014 18.9481C16.4948 18.9483 16.4883 18.9502 16.4827 18.9537C16.477 18.9572 16.4724 18.962 16.4691 18.9678C16.4554 18.9917 16.4656 19.0271 16.4793 19.0464C16.4856 19.0558 16.4934 19.0665 16.5037 19.0661C16.5139 19.0657 16.5173 19.0597 16.5292 19.0597C16.5411 19.0597 16.5448 19.0661 16.5549 19.0658C16.5651 19.0656 16.5722 19.0562 16.5788 19.0467C16.5834 19.0399 16.587 19.0324 16.5895 19.0245C16.5833 19.0219 16.5781 19.0175 16.5744 19.0119C16.5707 19.0063 16.5687 18.9998 16.5686 18.9931Z" fill="black"/>
</svg>
