<svg width="29" height="29" viewBox="0 0 29 29" fill="none" xmlns="http://www.w3.org/2000/svg">
<rect width="29" height="29" fill="#F5F5F5"/>
<rect width="375" height="1549" transform="translate(-38 -560)" fill="#1F2128"/>
<rect x="-13" y="-12" width="326" height="52" rx="10" fill="#32343C"/>
<g clip-path="url(#clip0_0_1)">
<path d="M22.4908 0H6.50918C2.91426 0 0 2.91426 0 6.50918V22.4908C0 26.0857 2.91426 29 6.50918 29H22.4908C26.0857 29 29 26.0857 29 22.4908V6.50918C29 2.91426 26.0857 0 22.4908 0Z" fill="url(#paint0_linear_0_1)"/>
<path d="M10.0451 5.02251H19.0856C19.2865 5.12296 19.5879 5.12296 19.7888 5.22341C20.6704 5.36629 21.4946 5.7522 22.1689 6.33779C22.8433 6.92337 23.3409 7.68542 23.6059 8.53827C23.7543 9.02975 23.8552 9.5343 23.9073 10.045V18.8847C23.7636 20.005 23.35 21.0736 22.7019 21.9986C22.1458 22.6428 21.4487 23.1502 20.6648 23.4812C19.8808 23.8122 19.0311 23.958 18.1816 23.9072H10.6478C9.30334 23.9724 7.98141 23.5437 6.93116 22.7018C6.2925 22.15 5.78849 21.4594 5.4577 20.6829C5.1269 19.9064 4.97808 19.0645 5.0226 18.2217V11.1902C5.00601 10.6858 5.03965 10.1811 5.12305 9.68341C5.22448 8.65358 5.64791 7.68192 6.33317 6.9065C7.01842 6.13108 7.93063 5.59137 8.94016 5.36405L10.0451 5.02251ZM6.93116 14.5653V18.4829C6.88833 18.9817 6.95507 19.4839 7.1267 19.9543C7.29834 20.4247 7.57072 20.8518 7.92477 21.2059C8.27882 21.56 8.70599 21.8323 9.17637 22.004C9.64674 22.1756 10.1489 22.2423 10.6478 22.1995C13.2595 22.3 15.8712 22.3 18.4829 22.1995C20.7933 22.1995 22.0991 20.7932 22.1996 18.4829C22.3001 15.8711 22.3001 13.2594 22.1996 10.6477C22.2256 10.1528 22.1473 9.65792 21.9697 9.1952C21.7922 8.73249 21.5193 8.31227 21.1689 7.96182C20.8184 7.61136 20.3982 7.3385 19.9355 7.16093C19.4727 6.98335 18.9779 6.90504 18.4829 6.93107C15.8712 6.83062 13.2595 6.83062 10.6478 6.93107C10.1489 6.88824 9.64674 6.95498 9.17637 7.12662C8.70599 7.29825 8.27882 7.57063 7.92477 7.92468C7.57072 8.27874 7.29834 8.70591 7.1267 9.17628C6.95507 9.64665 6.88833 10.1489 6.93116 10.6477V14.5653Z" fill="white"/>
<path d="M9.68359 14.6055C9.68625 13.3009 10.2057 12.0505 11.1282 11.128C12.0507 10.2055 13.3011 9.68606 14.6057 9.68341C15.903 9.7091 17.1401 10.2359 18.0576 11.1535C18.9752 12.071 19.502 13.3081 19.5277 14.6055C19.5251 15.9101 19.0056 17.1605 18.0831 18.083C17.1607 19.0055 15.9103 19.5249 14.6057 19.5275C13.3083 19.5018 12.0712 18.975 11.1537 18.0575C10.2361 17.1399 9.70929 15.9028 9.68359 14.6055ZM14.6057 11.4915C13.9955 11.4816 13.3964 11.6541 12.8849 11.9869C12.3735 12.3197 11.973 12.7976 11.7349 13.3594C11.4969 13.9213 11.432 14.5414 11.5486 15.1403C11.6652 15.7393 11.958 16.2898 12.3895 16.7212C12.8209 17.1527 13.3714 17.4455 13.9704 17.5621C14.5693 17.6787 15.1894 17.6138 15.7513 17.3757C16.3131 17.1376 16.791 16.7372 17.1238 16.2258C17.4566 15.7143 17.6291 15.1151 17.6192 14.505C17.6192 13.7058 17.3017 12.9393 16.7365 12.3741C16.1714 11.809 15.4049 11.4915 14.6057 11.4915Z" fill="white"/>
<path d="M18.4226 9.48251C18.417 9.3227 18.4443 9.16345 18.5029 9.01466C18.5615 8.86588 18.6501 8.73074 18.7632 8.61767C18.8762 8.5046 19.0114 8.41601 19.1602 8.35742C19.3089 8.29883 19.4682 8.27149 19.628 8.2771C19.9407 8.29826 20.2352 8.43205 20.4568 8.65368C20.6785 8.87532 20.8122 9.16978 20.8334 9.48251C20.8334 9.8022 20.7064 10.1088 20.4803 10.3349C20.2543 10.5609 19.9477 10.6879 19.628 10.6879C19.3083 10.6879 19.0017 10.5609 18.7756 10.3349C18.5496 10.1088 18.4226 9.8022 18.4226 9.48251Z" fill="white"/>
</g>
<defs>
<linearGradient id="paint0_linear_0_1" x1="-1.84829" y1="30.6072" x2="32.3048" y2="-3.04364" gradientUnits="userSpaceOnUse">
<stop stop-color="#FED576"/>
<stop offset="0.26" stop-color="#F47133"/>
<stop offset="0.61" stop-color="#BC3081"/>
<stop offset="1" stop-color="#4C63D2"/>
</linearGradient>
<clipPath id="clip0_0_1">
<rect width="29" height="29" fill="white"/>
</clipPath>
</defs>
</svg>
