<svg width="30" height="30" viewBox="0 0 30 30" fill="none" xmlns="http://www.w3.org/2000/svg">
<g clip-path="url(#clip0_3889_1409)">
<path d="M25.8034 14.0617C25.7899 14.1042 25.7826 14.1495 25.7826 14.1967V27.0217C25.7826 27.2709 25.985 27.4732 26.2342 27.4732C26.4834 27.4732 26.6857 27.2709 26.6857 27.0217V14.1961C26.6857 14.1363 26.674 14.0791 26.6528 14.0268C28.2832 13.7927 29.5404 12.3873 29.5404 10.6934V8.08516H29.5793C29.8285 8.08516 30.0309 7.88277 30.0309 7.63359V7.45898C30.0309 7.20981 29.8285 7.00742 29.5793 7.00742C25.9091 7.00742 22.9234 4.02172 22.9234 0.351562C22.9234 0.102389 22.721 -0.1 22.4719 -0.1H7.52812C7.27895 -0.1 7.07656 0.102389 7.07656 0.351562C7.07656 4.02172 4.09087 7.00742 0.420703 7.00742C0.171529 7.00742 -0.0308594 7.20981 -0.0308594 7.45898V7.63359C-0.0308594 7.88283 0.171522 8.08499 0.420401 8.08574H0.420703H0.45957V10.6939C0.45957 12.3878 1.71666 13.7932 3.34706 14.0274C3.32589 14.0797 3.31426 14.1369 3.31426 14.1967V27.0223C3.31426 27.2714 3.51665 27.4738 3.76582 27.4738C4.01499 27.4738 4.21738 27.2714 4.21738 27.0223V14.1967C4.21738 14.1498 4.21021 14.1044 4.19686 14.0617H5.03789C6.28375 14.0617 7.3719 13.3819 7.95469 12.3749C8.53753 13.382 9.62619 14.0617 10.8715 14.0617H12.0826C13.3285 14.0617 14.4166 13.3819 14.9994 12.3749C15.5823 13.382 16.6709 14.0617 17.9162 14.0617H19.1273C20.3732 14.0617 21.4614 13.3819 22.0441 12.3749C22.627 13.382 23.7156 14.0617 24.9609 14.0617H25.8034ZM11.2794 19.525C11.2793 19.5251 11.2791 19.5252 11.279 19.5253C11.268 19.5357 11.258 19.5463 11.2489 19.557H9.17227C8.92309 19.557 8.7207 19.7594 8.7207 20.0086V25.3758C8.7207 25.625 8.92309 25.8273 9.17227 25.8273H20.8277C21.0769 25.8273 21.2793 25.625 21.2793 25.3758V20.0086C21.2793 19.7594 21.0769 19.557 20.8277 19.557H18.7515C18.7423 19.5463 18.7326 19.536 18.7223 19.526L18.7219 19.5257L15.313 16.2573L15.3129 16.2572C15.1378 16.0897 14.8623 16.0894 14.6875 16.2574L11.2794 19.525ZM29.6484 30.1C29.8976 30.1 30.1 29.8976 30.1 29.6484C30.1 29.3993 29.8976 29.1969 29.6484 29.1969H0.351562C0.102389 29.1969 -0.1 29.3993 -0.1 29.6484C-0.1 29.8976 0.102389 30.1 0.351562 30.1H29.6484ZM1.36328 8.08574H7.5043V10.6939C7.5043 12.0525 6.39832 13.1586 5.03906 13.1592C5.03905 13.1592 5.03903 13.1592 5.03902 13.1592H3.82852C2.46929 13.1592 1.36328 12.0532 1.36328 10.6939V8.08574ZM8.40742 8.08574H14.5484V10.6939C14.5484 12.0526 13.4424 13.1586 12.0838 13.1592C12.0838 13.1592 12.0838 13.1592 12.0837 13.1592H10.8727C9.51343 13.1592 8.40742 12.0532 8.40742 10.6939V8.08574ZM15.4516 8.08574H21.5926V10.6939C21.5926 12.0526 20.4866 13.1586 19.1279 13.1592C19.1279 13.1592 19.1279 13.1592 19.1279 13.1592H17.9168C16.5576 13.1592 15.4516 12.0532 15.4516 10.6939V8.08574ZM22.4957 10.6934V8.08516H28.6373V10.6934C28.6373 12.0526 27.5313 13.1586 26.1721 13.1586H24.9609C23.6017 13.1586 22.4957 12.0526 22.4957 10.6934ZM26.3428 7.18203H3.65716C6.08179 6.0287 7.79987 3.62157 7.96634 0.803125H22.0337C22.2001 3.62157 23.9182 6.0287 26.3428 7.18203ZM17.4494 19.557H12.5511L15 17.2087L17.4494 19.557ZM9.62383 24.9242V20.4602H20.3762V24.9242H9.62383Z" fill="white" stroke="white" stroke-width="0.2"/>
</g>
<defs>
<clipPath id="clip0_3889_1409">
<rect width="30" height="30" fill="white"/>
</clipPath>
</defs>
</svg>
