<svg width="70" height="56" viewBox="0 0 70 56" fill="none" xmlns="http://www.w3.org/2000/svg">
<rect width="69.4118" height="56" rx="16" fill="#F0F3F6" fill-opacity="0.1"/>
<g clip-path="url(#clip0_2396_218)">
<path d="M35.3194 36.3814C35.3194 33.7413 36.8671 31.4709 39.0977 30.4177C38.1522 30.1117 36.8452 29.6225 36.6095 29.0888C36.5006 28.8451 36.4919 28.381 36.529 27.8737C37.4543 26.7569 38.0608 25.3462 38.3852 24.4462C38.8617 24.7804 39.0547 24.3653 39.0547 24.3653C40.5546 22.1663 39.6224 21.2707 39.42 21.1079C39.2171 20.9447 39.015 21.23 39.015 21.23L38.9939 21.291C39.2795 15.4325 34.3005 15.0291 33.7151 15.0018C33.7242 15.004 33.6643 15.0083 33.3309 15.017C32.9936 15.0083 32.9345 15.004 32.9453 15.0018C32.3719 15.0278 27.3736 15.4234 27.6596 21.291L27.6385 21.23C27.6385 21.23 27.4365 20.9447 27.2336 21.1079C27.0315 21.2707 26.0989 22.1663 27.5989 24.3653C27.5989 24.3653 27.7919 24.7804 28.2683 24.4462C28.5923 25.3462 29.1992 26.7569 30.1245 27.8737C30.1616 28.381 30.153 28.8451 30.044 29.0888C29.72 29.8221 27.3693 30.4735 26.7214 30.677C26.073 30.8813 22.831 31.4921 22.507 35.0343L22 38.9436C22 38.9436 23.1545 40.5729 25.0181 40.2872C25.0181 40.2872 28.9089 42.0399 33.0207 41.9992C33.0987 41.9996 33.3309 41.9957 33.3309 41.9957C33.3309 41.9957 33.5596 41.9996 33.6367 41.9992C35.1005 42.0139 36.532 41.7996 37.7744 41.5196C36.2787 40.311 35.3194 38.46 35.3194 36.3814Z" fill="white"/>
<path d="M44.6639 37.4302H38.6993V35.632H44.6639V37.4302ZM41.8802 31.2371C41.103 31.2371 40.369 31.4163 39.709 31.7275C37.9691 32.5495 36.7607 34.3213 36.7607 36.3813C36.7607 38.0033 37.5094 39.4478 38.676 40.3906C39.5535 41.0996 40.6666 41.526 41.8802 41.526C44.7082 41.526 47 39.2223 47 36.3813C47 33.5399 44.7082 31.2371 41.8802 31.2371Z" fill="white"/>
</g>
<defs>
<clipPath id="clip0_2396_218">
<rect width="25" height="27" fill="white" transform="translate(22 15)"/>
</clipPath>
</defs>
</svg>
