<svg width="16" height="17" viewBox="0 0 16 17" fill="none" xmlns="http://www.w3.org/2000/svg">
<path d="M9.00053 4.8396V11.8396H7.00053V4.8396H4.00053L8.00053 0.8396L12.0005 4.8396H9.00053Z" fill="white"/>
<path d="M15.0005 16.8396H1.00053C0.713531 16.8396 0.440531 16.7166 0.250531 16.5016C0.0605311 16.2866 -0.0274689 16.0006 0.00753112 15.7156L1.00753 7.7156C1.07053 7.2146 1.49653 6.8396 2.00053 6.8396H5.00053V8.8396H2.88353L2.13353 14.8396H13.8675L13.1175 8.8396H11.0005V6.8396H14.0005C14.5045 6.8396 14.9305 7.2146 14.9925 7.7156L15.9925 15.7156C16.0285 16.0006 15.9395 16.2866 15.7495 16.5016C15.5605 16.7166 15.2875 16.8396 15.0005 16.8396Z" fill="white"/>
</svg>
