<svg width="29" height="29" viewBox="0 0 29 29" fill="none" xmlns="http://www.w3.org/2000/svg">
<path d="M22.4908 0H6.50918C2.91426 0 0 2.91426 0 6.50918V22.4908C0 26.0857 2.91426 29 6.50918 29H22.4908C26.0857 29 29 26.0857 29 22.4908V6.50918C29 2.91426 26.0857 0 22.4908 0Z" fill="#FD3832"/>
<path fill-rule="evenodd" clip-rule="evenodd" d="M8.03595 19.859C7.74608 19.7712 7.48159 19.6149 7.2648 19.4033C7.04801 19.1918 6.88529 18.9312 6.79037 18.6436C6.24794 17.1569 6.08721 10.9491 7.1319 9.72359C7.47959 9.32492 7.97048 9.07948 8.49802 9.04052C11.3006 8.73917 19.9594 8.77935 20.9539 9.14097C21.2336 9.23172 21.4891 9.38458 21.7013 9.58812C21.9136 9.79165 22.077 10.0406 22.1794 10.3162C22.772 11.8531 22.7921 17.4382 22.099 18.9148C21.9151 19.2992 21.6073 19.6105 21.2251 19.7987C20.1804 20.3211 9.42216 20.311 8.03595 19.859ZM12.4859 16.946L17.5084 14.3343L12.4859 11.7025V16.946Z" fill="white"/>
</svg>
